<svg width="126" height="49" viewBox="0 0 126 49" fill="none" xmlns="http://www.w3.org/2000/svg">
<path fill-rule="evenodd" clip-rule="evenodd" d="M0.78125 44.8137C0.78125 43.8472 1.56475 43.0637 2.53125 43.0637H9.22087C10.1874 43.0637 10.9709 43.8472 10.9709 44.8137C10.9709 45.7802 10.1874 46.5637 9.22087 46.5637H2.53125C1.56475 46.5637 0.78125 45.7802 0.78125 44.8137Z" fill="#282525"/>
<path fill-rule="evenodd" clip-rule="evenodd" d="M27.5397 44.8137C27.5397 43.8472 28.3232 43.0637 29.2897 43.0637H35.9793C36.9458 43.0637 37.7293 43.8472 37.7293 44.8137C37.7293 45.7802 36.9458 46.5637 35.9793 46.5637H29.2897C28.3232 46.5637 27.5397 45.7802 27.5397 44.8137Z" fill="#282525"/>
<path fill-rule="evenodd" clip-rule="evenodd" d="M17.5053 24.7448C17.5053 23.7783 18.2888 22.9948 19.2553 22.9948L39.3242 22.9948C40.2907 22.9948 41.0742 23.7783 41.0742 24.7448C41.0742 25.7113 40.2907 26.4948 39.3242 26.4948L19.2553 26.4948C18.2888 26.4948 17.5053 25.7112 17.5053 24.7448Z" fill="#282525"/>
<path fill-rule="evenodd" clip-rule="evenodd" d="M42 6.42584C41.0335 6.42584 40.25 5.64234 40.25 4.67584L40.25 1.99999C40.25 1.0335 41.0335 0.249994 42 0.249994C42.9665 0.249994 43.75 1.0335 43.75 1.99999L43.75 4.67584C43.75 5.64234 42.9665 6.42584 42 6.42584Z" fill="#282525"/>
<path fill-rule="evenodd" clip-rule="evenodd" d="M15.9105 9.10175C14.944 9.10175 14.1605 8.31824 14.1605 7.35175L14.1605 4.6759C14.1605 3.7094 14.944 2.9259 15.9105 2.9259C16.877 2.9259 17.6605 3.7094 17.6605 4.6759L17.6605 7.35175C17.6605 8.31824 16.877 9.10175 15.9105 9.10175Z" fill="#282525"/>
<path fill-rule="evenodd" clip-rule="evenodd" d="M14.1605 4.67584C14.1605 3.70934 14.944 2.92584 15.9105 2.92584L42 2.92584C42.9665 2.92584 43.75 3.70934 43.75 4.67584C43.75 5.64234 42.9665 6.42584 42 6.42584L15.9105 6.42584C14.944 6.42584 14.1605 5.64234 14.1605 4.67584Z" fill="#282525"/>
<path fill-rule="evenodd" clip-rule="evenodd" d="M8.43825 46.3789C7.57379 45.9466 7.22339 44.8955 7.65562 44.031L27.7245 3.89329C28.1567 3.02883 29.2079 2.67843 30.0724 3.11066C30.9368 3.5429 31.2872 4.59407 30.855 5.45854L10.7861 45.5963C10.3539 46.4607 9.30271 46.8111 8.43825 46.3789Z" fill="#282525"/>
<path fill-rule="evenodd" clip-rule="evenodd" d="M29.2897 46.5637C28.3232 46.5637 27.5397 45.7802 27.5397 44.8137L27.5397 4.67594C27.5397 3.70944 28.3232 2.92594 29.2897 2.92594C30.2562 2.92594 31.0397 3.70944 31.0397 4.67594L31.0397 44.8137C31.0397 45.7802 30.2562 46.5637 29.2897 46.5637Z" fill="#282525"/>
<path d="M115.157 36.72L115.541 45.408C115.541 46.272 115.317 46.976 114.869 47.52C114.453 48.032 113.941 48.288 113.333 48.288C112.725 48.288 112.229 48.048 111.845 47.568C111.461 47.056 111.269 46.368 111.269 45.504C111.269 44.64 111.349 43.408 111.509 41.808C111.829 38.608 111.989 35.904 111.989 33.696C111.989 32.736 111.685 31.824 111.077 30.96C110.501 30.064 110.213 29.264 110.213 28.56C110.213 27.856 110.453 27.28 110.933 26.832C111.413 26.352 111.957 26.112 112.565 26.112C114.165 26.112 114.965 27.376 114.965 29.904V31.776C115.925 30.048 117.077 28.672 118.421 27.648C119.765 26.624 120.997 26.112 122.117 26.112C123.237 26.112 124.085 26.4 124.661 26.976C125.269 27.52 125.573 28.256 125.573 29.184C125.573 30.112 125.349 30.896 124.901 31.536C124.453 32.144 123.973 32.448 123.461 32.448C122.949 32.448 122.549 32.32 122.261 32.064C122.005 31.776 121.813 31.488 121.685 31.2C121.557 30.88 121.317 30.592 120.965 30.336C120.613 30.048 120.165 29.904 119.621 29.904C118.693 29.904 117.765 30.512 116.837 31.728C115.909 32.944 115.349 34.608 115.157 36.72Z" fill="black"/>
<path d="M104.117 41.568C104.341 42.144 104.805 42.928 105.509 43.92C106.245 44.88 106.613 45.664 106.613 46.272C106.613 46.88 106.453 47.376 106.133 47.76C105.813 48.112 105.381 48.288 104.837 48.288C103.525 48.288 102.357 46.928 101.333 44.208L100.949 43.152C99.3173 46.576 96.8693 48.288 93.6053 48.288C91.9733 48.288 90.6133 47.776 89.5253 46.752C88.4693 45.696 87.9413 44.384 87.9413 42.816C87.9413 40.384 88.7733 38.288 90.4373 36.528C92.1013 34.768 94.2773 33.824 96.9653 33.696C96.3253 32.576 95.6053 31.744 94.8053 31.2C94.0373 30.624 93.3333 30.288 92.6933 30.192C92.0533 30.096 91.4453 30.048 90.8693 30.048C90.3253 30.016 89.8933 29.888 89.5733 29.664C89.2533 29.44 89.0933 29.008 89.0933 28.368C89.0933 27.696 89.3493 27.152 89.8613 26.736C90.4053 26.32 91.0453 26.112 91.7813 26.112C93.8613 26.112 95.9093 27.152 97.9253 29.232C99.9413 31.312 101.701 34.576 103.205 39.024L104.117 41.568ZM95.7653 36.24C94.6133 36.24 93.5733 36.624 92.6453 37.392C91.7493 38.16 91.3013 39.152 91.3013 40.368C91.3013 41.584 91.7013 42.608 92.5013 43.44C93.3333 44.24 94.3253 44.64 95.4773 44.64C96.6293 44.64 97.6213 44.24 98.4533 43.44C99.2853 42.608 99.7013 41.632 99.7013 40.512C99.7013 39.712 99.5573 38.976 99.2693 38.304C98.9813 37.6 98.8053 37.168 98.7413 37.008C97.9093 36.496 96.9173 36.24 95.7653 36.24Z" fill="black"/>
<path d="M74.4222 36.72L74.8062 45.408C74.8062 46.272 74.5821 46.976 74.1341 47.52C73.7181 48.032 73.2062 48.288 72.5982 48.288C71.9902 48.288 71.4941 48.048 71.1101 47.568C70.7261 47.056 70.5341 46.368 70.5341 45.504C70.5341 44.64 70.6142 43.408 70.7742 41.808C71.0942 38.608 71.2542 35.904 71.2542 33.696C71.2542 32.736 70.9501 31.824 70.3421 30.96C69.7661 30.064 69.4781 29.264 69.4781 28.56C69.4781 27.856 69.7182 27.28 70.1982 26.832C70.6782 26.352 71.2222 26.112 71.8302 26.112C73.4302 26.112 74.2302 27.376 74.2302 29.904V31.776C75.1902 30.048 76.3422 28.672 77.6862 27.648C79.0302 26.624 80.2622 26.112 81.3822 26.112C82.5022 26.112 83.3501 26.4 83.9261 26.976C84.5341 27.52 84.8382 28.256 84.8382 29.184C84.8382 30.112 84.6142 30.896 84.1662 31.536C83.7182 32.144 83.2381 32.448 82.7261 32.448C82.2141 32.448 81.8142 32.32 81.5262 32.064C81.2702 31.776 81.0782 31.488 80.9502 31.2C80.8222 30.88 80.5822 30.592 80.2302 30.336C79.8781 30.048 79.4301 29.904 78.8861 29.904C77.9581 29.904 77.0302 30.512 76.1022 31.728C75.1742 32.944 74.6142 34.608 74.4222 36.72Z" fill="black"/>
<path d="M45.024 40.32C45.024 40.32 45.152 37.392 45.408 31.536C45.408 26.32 45.28 22.24 45.024 19.296C44.768 16.352 44.64 14.832 44.64 14.736C44.64 12.912 45.344 12 46.752 12C48.448 12 49.296 13.312 49.296 15.936C49.296 17.504 49.12 20.176 48.768 23.952C48.448 27.728 48.272 30.24 48.24 31.488C49.584 29.824 51.184 28.512 53.04 27.552C54.928 26.592 56.816 26.112 58.704 26.112C60.624 26.112 62.288 26.896 63.696 28.464C65.136 30 65.856 31.872 65.856 34.08C65.856 37.632 64.496 40.896 61.776 43.872C59.056 46.816 55.968 48.288 52.512 48.288C50.368 48.288 48.576 47.52 47.136 45.984C45.728 44.416 45.024 42.528 45.024 40.32ZM50.256 32.016C48.848 33.424 48.144 35.152 48.144 37.2C48.144 39.248 48.848 40.992 50.256 42.432C51.696 43.84 53.424 44.544 55.44 44.544C57.488 44.544 59.2 43.84 60.576 42.432C61.952 40.992 62.64 39.248 62.64 37.2C62.64 35.152 61.952 33.424 60.576 32.016C59.2 30.608 57.488 29.904 55.44 29.904C53.424 29.904 51.696 30.608 50.256 32.016Z" fill="black"/>
<path d="M109.61 20.46C109.743 19.94 109.87 19.1733 109.99 18.16C110.123 17.1467 110.19 15.9867 110.19 14.68C110.19 13.3733 110.13 11.58 110.01 9.3H109.39C108.87 9.3 108.61 9.07333 108.61 8.62C108.61 8.16667 108.87 7.94 109.39 7.94C109.657 7.94 109.857 7.94667 109.99 7.96C110.043 6.29333 110.67 4.88667 111.87 3.74C113.083 2.58 114.297 2 115.51 2C115.99 2 116.383 2.08667 116.69 2.26C117.01 2.43333 117.17 2.68667 117.17 3.02C117.17 3.34 117.077 3.59333 116.89 3.78C116.717 3.95333 116.543 4.04 116.37 4.04C116.197 4.04 115.897 3.96667 115.47 3.82C115.043 3.66 114.623 3.58 114.21 3.58C113.383 3.58 112.677 3.94667 112.09 4.68C111.503 5.4 111.21 6.26667 111.21 7.28V8.04H111.85L114.61 7.88C115.13 7.88 115.39 8.12667 115.39 8.62C115.39 9.11333 115.13 9.36 114.61 9.36L111.85 9.2C111.557 9.2 111.343 9.20667 111.21 9.22C111.237 10.6867 111.297 12.3333 111.39 14.16C111.497 15.9867 111.55 17.7867 111.55 19.56C111.55 21.72 111.13 22.8 110.29 22.8C109.703 22.8 109.41 22.42 109.41 21.66C109.41 21.3933 109.477 20.9933 109.61 20.46Z" fill="#FF1259"/>
<path d="M101.423 10.34C100.836 10.9267 100.543 11.6467 100.543 12.5C100.543 13.3533 100.836 14.08 101.423 14.68C102.023 15.2667 102.743 15.56 103.583 15.56C104.436 15.56 105.149 15.2667 105.723 14.68C106.296 14.08 106.583 13.3533 106.583 12.5C106.583 11.6467 106.296 10.9267 105.723 10.34C105.149 9.75334 104.436 9.46001 103.583 9.46001C102.743 9.46001 102.023 9.75334 101.423 10.34ZM102.223 17.12C101.369 17.12 100.656 16.7867 100.083 16.12C99.5093 15.4533 99.2227 14.62 99.2227 13.62C99.2227 12.6067 99.536 11.6333 100.163 10.7C100.789 9.75334 101.523 9.04667 102.363 8.58C103.203 8.11334 104.049 7.88 104.903 7.88C105.756 7.88 106.469 8.21334 107.043 8.88C107.616 9.54667 107.903 10.3867 107.903 11.4C107.903 12.4 107.589 13.3733 106.963 14.32C106.336 15.2533 105.603 15.9533 104.763 16.42C103.923 16.8867 103.076 17.12 102.223 17.12Z" fill="#FF1259"/>
<path d="M86.8914 17.12C86.3981 17.12 85.9981 17.02 85.6914 16.82C85.3847 16.62 85.2314 16.3733 85.2314 16.08C85.2314 15.7733 85.318 15.5333 85.4914 15.36C85.678 15.1733 85.8581 15.08 86.0314 15.08C86.2181 15.08 86.5181 15.16 86.9314 15.32C87.3447 15.48 87.7714 15.56 88.2114 15.56C88.6647 15.56 89.1181 15.4467 89.5714 15.22C90.0247 14.98 90.2514 14.6933 90.2514 14.36C90.2514 14.0133 90.0781 13.7467 89.7314 13.56C89.3981 13.3733 88.9914 13.2267 88.5114 13.12C88.0314 13 87.5514 12.8667 87.0714 12.72C86.5914 12.5733 86.178 12.3533 85.8314 12.06C85.498 11.7533 85.3314 11.38 85.3314 10.94C85.3314 10.22 85.7914 9.53334 86.7114 8.88C87.6314 8.21334 88.6447 7.88 89.7514 7.88C90.2847 7.88 90.6914 7.98 90.9714 8.18001C91.2647 8.36667 91.4114 8.61334 91.4114 8.92001C91.4114 9.22667 91.318 9.47334 91.1314 9.66001C90.958 9.83334 90.7781 9.92001 90.5914 9.92001C90.4181 9.92001 90.1247 9.84001 89.7114 9.68001C89.2981 9.52001 88.8647 9.44001 88.4114 9.44001C87.9714 9.44001 87.5847 9.53334 87.2514 9.72001C86.9314 9.90667 86.7714 10.1333 86.7714 10.4C86.7714 10.6667 87.0247 10.9 87.5314 11.1C88.0514 11.3 88.6181 11.46 89.2314 11.58C89.8447 11.7 90.4047 11.94 90.9114 12.3C91.4314 12.6467 91.6914 13.1 91.6914 13.66C91.6914 14.5267 91.1847 15.32 90.1714 16.04C89.158 16.76 88.0647 17.12 86.8914 17.12Z" fill="#FF1259"/>
<path d="M80.8264 13.02L78.4464 12.82C78.2197 12.82 78.0397 12.84 77.9064 12.88C77.9864 13.64 78.3064 14.2733 78.8664 14.78C79.4397 15.2867 80.1131 15.54 80.8864 15.54C81.6331 15.54 82.3064 15.2667 82.9064 14.72C83.1197 14.5333 83.2797 14.44 83.3864 14.44C83.4931 14.44 83.5864 14.48 83.6664 14.56C83.7464 14.64 83.7864 14.7267 83.7864 14.82C83.7864 15.2067 83.4064 15.6867 82.6464 16.26C81.8997 16.8333 81.0464 17.12 80.0864 17.12C79.1397 17.12 78.3131 16.7333 77.6064 15.96C76.9131 15.1867 76.5664 14.2267 76.5664 13.08C76.5664 11.6133 77.1197 10.38 78.2264 9.38001C79.3331 8.38001 80.5531 7.88 81.8864 7.88C82.4464 7.88 82.8997 7.98 83.2464 8.18001C83.6064 8.36667 83.7864 8.61334 83.7864 8.92001C83.7864 9.21334 83.6931 9.45334 83.5064 9.64001C83.3331 9.82667 83.1597 9.92001 82.9864 9.92001C82.8131 9.92001 82.5131 9.84001 82.0864 9.68001C81.6731 9.52001 81.2731 9.44001 80.8864 9.44001C80.1664 9.44001 79.5397 9.66001 79.0064 10.1C78.4864 10.5267 78.1397 11.06 77.9664 11.7L80.7264 11.54C81.3397 11.54 81.6464 11.78 81.6464 12.26C81.6464 12.7667 81.3731 13.02 80.8264 13.02Z" fill="#FF1259"/>
<path d="M73.0895 15.54C73.0895 10.3533 73.0562 7.25333 72.9895 6.24C72.8695 4.4 72.8095 3.32667 72.8095 3.02C72.8095 2.71333 72.8962 2.46667 73.0695 2.28C73.2562 2.09333 73.4762 2 73.7295 2C73.9828 2 74.1895 2.09333 74.3495 2.28C74.5095 2.46667 74.5895 2.7 74.5895 2.98C74.5895 3.82 74.5562 4.96 74.4895 6.4C74.3562 9.78667 74.2895 12.3067 74.2895 13.96C74.2895 14.36 74.4162 14.7467 74.6695 15.12C74.9362 15.48 75.0695 15.8067 75.0695 16.1C75.0695 16.3933 74.9695 16.64 74.7695 16.84C74.5695 17.0267 74.3428 17.12 74.0895 17.12C73.4228 17.12 73.0895 16.5933 73.0895 15.54Z" fill="#FF1259"/>
<path d="M70.2298 14.32C70.3232 14.56 70.5165 14.8867 70.8098 15.3C71.1165 15.7 71.2698 16.0267 71.2698 16.28C71.2698 16.5333 71.2032 16.74 71.0698 16.9C70.9365 17.0467 70.7565 17.12 70.5298 17.12C69.9832 17.12 69.4965 16.5533 69.0698 15.42L68.9098 14.98C68.2298 16.4067 67.2098 17.12 65.8498 17.12C65.1698 17.12 64.6032 16.9067 64.1498 16.48C63.7098 16.04 63.4898 15.4933 63.4898 14.84C63.4898 13.8267 63.8365 12.9533 64.5298 12.22C65.2232 11.4867 66.1298 11.0933 67.2498 11.04C66.9832 10.5733 66.6832 10.2267 66.3498 10C66.0298 9.76001 65.7365 9.62001 65.4698 9.58001C65.2032 9.54001 64.9498 9.52001 64.7098 9.52001C64.4832 9.50667 64.3032 9.45334 64.1698 9.36001C64.0365 9.26667 63.9698 9.08667 63.9698 8.82001C63.9698 8.54001 64.0765 8.31334 64.2898 8.14001C64.5165 7.96667 64.7832 7.88 65.0898 7.88C65.9565 7.88 66.8098 8.31334 67.6498 9.18001C68.4898 10.0467 69.2232 11.4067 69.8498 13.26L70.2298 14.32ZM66.7498 12.1C66.2698 12.1 65.8365 12.26 65.4498 12.58C65.0765 12.9 64.8898 13.3133 64.8898 13.82C64.8898 14.3267 65.0565 14.7533 65.3898 15.1C65.7365 15.4333 66.1498 15.6 66.6298 15.6C67.1098 15.6 67.5232 15.4333 67.8698 15.1C68.2165 14.7533 68.3898 14.3467 68.3898 13.88C68.3898 13.5467 68.3298 13.24 68.2098 12.96C68.0898 12.6667 68.0165 12.4867 67.9898 12.42C67.6432 12.2067 67.2298 12.1 66.7498 12.1Z" fill="#FF1259"/>
<path d="M58.26 4.46002C58.26 4.46002 57.9067 4.45335 57.2 4.44002C55.3333 4.44002 54.4 4.98668 54.4 6.08002C54.4 6.82668 54.78 7.27335 55.54 7.42002C56.0467 7.51335 56.3 7.78002 56.3 8.22002C56.3 8.46002 56.2133 8.65335 56.04 8.80002C55.88 8.93335 55.66 9.00002 55.38 9.00002C54.7933 9.00002 54.3 8.75335 53.9 8.26002C53.5 7.75335 53.3 7.18002 53.3 6.54002C53.3 4.23335 55.2733 3.08002 59.22 3.08002H63.26C63.4733 3.08002 63.66 3.15335 63.82 3.30002C63.9933 3.43335 64.08 3.62002 64.08 3.86002C64.08 4.10002 63.9933 4.29335 63.82 4.44002C63.66 4.57335 63.4733 4.64002 63.26 4.64002L60.16 4.54002C60.0533 6.83335 60 8.66002 60 10.02C60 11.3667 60.0267 12.6734 60.08 13.94C60.1467 15.2067 60.18 15.9467 60.18 16.16C60.18 16.3734 60.0867 16.5867 59.9 16.8C59.7267 17.0134 59.5 17.12 59.22 17.12C58.94 17.12 58.7067 17.0134 58.52 16.8C58.3467 16.5867 58.26 16.3734 58.26 16.16C58.26 15.9467 58.2867 15.2067 58.34 13.94C58.4067 12.6734 58.44 11.42 58.44 10.18C58.44 8.94002 58.38 7.03335 58.26 4.46002Z" fill="#FF1259"/>
</svg>
