<svg width="126" height="49" viewBox="0 0 126 49" fill="none" xmlns="http://www.w3.org/2000/svg">
<path fill-rule="evenodd" clip-rule="evenodd" d="M0.78125 44.5637C0.78125 43.5972 1.56475 42.8137 2.53125 42.8137H9.22087C10.1874 42.8137 10.9709 43.5972 10.9709 44.5637C10.9709 45.5302 10.1874 46.3137 9.22087 46.3137H2.53125C1.56475 46.3137 0.78125 45.5302 0.78125 44.5637Z" fill="#E9E6E6"/>
<path fill-rule="evenodd" clip-rule="evenodd" d="M27.5397 44.5637C27.5397 43.5972 28.3232 42.8137 29.2897 42.8137H35.9793C36.9458 42.8137 37.7293 43.5972 37.7293 44.5637C37.7293 45.5302 36.9458 46.3137 35.9793 46.3137H29.2897C28.3232 46.3137 27.5397 45.5302 27.5397 44.5637Z" fill="#E9E6E6"/>
<path fill-rule="evenodd" clip-rule="evenodd" d="M17.5053 24.4948C17.5053 23.5283 18.2888 22.7448 19.2553 22.7448L39.3242 22.7448C40.2907 22.7448 41.0742 23.5283 41.0742 24.4948C41.0742 25.4613 40.2907 26.2448 39.3242 26.2448L19.2553 26.2448C18.2888 26.2448 17.5053 25.4612 17.5053 24.4948Z" fill="#E9E6E6"/>
<path fill-rule="evenodd" clip-rule="evenodd" d="M42 6.17584C41.0335 6.17584 40.25 5.39234 40.25 4.42584L40.25 1.74999C40.25 0.783496 41.0335 -5.75629e-06 42 -5.79854e-06C42.9665 -5.84079e-06 43.75 0.783496 43.75 1.74999L43.75 4.42584C43.75 5.39234 42.9665 6.17584 42 6.17584Z" fill="#E9E6E6"/>
<path fill-rule="evenodd" clip-rule="evenodd" d="M15.9105 8.85175C14.944 8.85175 14.1605 8.06824 14.1605 7.10175L14.1605 4.4259C14.1605 3.4594 14.944 2.6759 15.9105 2.6759C16.877 2.6759 17.6605 3.4594 17.6605 4.4259L17.6605 7.10175C17.6605 8.06824 16.877 8.85175 15.9105 8.85175Z" fill="#E9E6E6"/>
<path fill-rule="evenodd" clip-rule="evenodd" d="M14.1605 4.42584C14.1605 3.45934 14.944 2.67584 15.9105 2.67584L42 2.67584C42.9665 2.67584 43.75 3.45934 43.75 4.42584C43.75 5.39234 42.9665 6.17584 42 6.17584L15.9105 6.17584C14.944 6.17584 14.1605 5.39234 14.1605 4.42584Z" fill="#E9E6E6"/>
<path fill-rule="evenodd" clip-rule="evenodd" d="M8.43825 46.1289C7.57379 45.6966 7.22339 44.6455 7.65562 43.781L27.7245 3.64329C28.1567 2.77883 29.2079 2.42843 30.0724 2.86066C30.9368 3.2929 31.2872 4.34407 30.855 5.20854L10.7861 45.3463C10.3539 46.2107 9.30271 46.5611 8.43825 46.1289Z" fill="#E9E6E6"/>
<path fill-rule="evenodd" clip-rule="evenodd" d="M29.2897 46.3137C28.3232 46.3137 27.5397 45.5302 27.5397 44.5637L27.5397 4.42594C27.5397 3.45944 28.3232 2.67594 29.2897 2.67594C30.2562 2.67594 31.0397 3.45944 31.0397 4.42594L31.0397 44.5637C31.0397 45.5302 30.2562 46.3137 29.2897 46.3137Z" fill="#E9E6E6"/>
<path d="M115.157 36.47L115.541 45.158C115.541 46.022 115.317 46.726 114.869 47.27C114.453 47.782 113.941 48.038 113.333 48.038C112.725 48.038 112.229 47.798 111.845 47.318C111.461 46.806 111.269 46.118 111.269 45.254C111.269 44.39 111.349 43.158 111.509 41.558C111.829 38.358 111.989 35.654 111.989 33.446C111.989 32.486 111.685 31.574 111.077 30.71C110.501 29.814 110.213 29.014 110.213 28.31C110.213 27.606 110.453 27.03 110.933 26.582C111.413 26.102 111.957 25.862 112.565 25.862C114.165 25.862 114.965 27.126 114.965 29.654V31.526C115.925 29.798 117.077 28.422 118.421 27.398C119.765 26.374 120.997 25.862 122.117 25.862C123.237 25.862 124.085 26.15 124.661 26.726C125.269 27.27 125.573 28.006 125.573 28.934C125.573 29.862 125.349 30.646 124.901 31.286C124.453 31.894 123.973 32.198 123.461 32.198C122.949 32.198 122.549 32.07 122.261 31.814C122.005 31.526 121.813 31.238 121.685 30.95C121.557 30.63 121.317 30.342 120.965 30.086C120.613 29.798 120.165 29.654 119.621 29.654C118.693 29.654 117.765 30.262 116.837 31.478C115.909 32.694 115.349 34.358 115.157 36.47Z" fill="#E9E6E6"/>
<path d="M104.117 41.318C104.341 41.894 104.805 42.678 105.509 43.67C106.245 44.63 106.613 45.414 106.613 46.022C106.613 46.63 106.453 47.126 106.133 47.51C105.813 47.862 105.381 48.038 104.837 48.038C103.525 48.038 102.357 46.678 101.333 43.958L100.949 42.902C99.3173 46.326 96.8693 48.038 93.6053 48.038C91.9733 48.038 90.6133 47.526 89.5253 46.502C88.4693 45.446 87.9413 44.134 87.9413 42.566C87.9413 40.134 88.7733 38.038 90.4373 36.278C92.1013 34.518 94.2773 33.574 96.9653 33.446C96.3253 32.326 95.6053 31.494 94.8053 30.95C94.0373 30.374 93.3333 30.038 92.6933 29.942C92.0533 29.846 91.4453 29.798 90.8693 29.798C90.3253 29.766 89.8933 29.638 89.5733 29.414C89.2533 29.19 89.0933 28.758 89.0933 28.118C89.0933 27.446 89.3493 26.902 89.8613 26.486C90.4053 26.07 91.0453 25.862 91.7813 25.862C93.8613 25.862 95.9093 26.902 97.9253 28.982C99.9413 31.062 101.701 34.326 103.205 38.774L104.117 41.318ZM95.7653 35.99C94.6133 35.99 93.5733 36.374 92.6453 37.142C91.7493 37.91 91.3013 38.902 91.3013 40.118C91.3013 41.334 91.7013 42.358 92.5013 43.19C93.3333 43.99 94.3253 44.39 95.4773 44.39C96.6293 44.39 97.6213 43.99 98.4533 43.19C99.2853 42.358 99.7013 41.382 99.7013 40.262C99.7013 39.462 99.5573 38.726 99.2693 38.054C98.9813 37.35 98.8053 36.918 98.7413 36.758C97.9093 36.246 96.9173 35.99 95.7653 35.99Z" fill="#E9E6E6"/>
<path d="M74.4222 36.47L74.8062 45.158C74.8062 46.022 74.5821 46.726 74.1341 47.27C73.7181 47.782 73.2062 48.038 72.5982 48.038C71.9902 48.038 71.4941 47.798 71.1101 47.318C70.7261 46.806 70.5341 46.118 70.5341 45.254C70.5341 44.39 70.6142 43.158 70.7742 41.558C71.0942 38.358 71.2542 35.654 71.2542 33.446C71.2542 32.486 70.9501 31.574 70.3421 30.71C69.7661 29.814 69.4781 29.014 69.4781 28.31C69.4781 27.606 69.7182 27.03 70.1982 26.582C70.6782 26.102 71.2222 25.862 71.8302 25.862C73.4302 25.862 74.2302 27.126 74.2302 29.654V31.526C75.1902 29.798 76.3422 28.422 77.6862 27.398C79.0302 26.374 80.2622 25.862 81.3822 25.862C82.5022 25.862 83.3501 26.15 83.9261 26.726C84.5341 27.27 84.8382 28.006 84.8382 28.934C84.8382 29.862 84.6142 30.646 84.1662 31.286C83.7182 31.894 83.2381 32.198 82.7261 32.198C82.2141 32.198 81.8142 32.07 81.5262 31.814C81.2702 31.526 81.0782 31.238 80.9502 30.95C80.8222 30.63 80.5822 30.342 80.2302 30.086C79.8781 29.798 79.4301 29.654 78.8861 29.654C77.9581 29.654 77.0302 30.262 76.1022 31.478C75.1742 32.694 74.6142 34.358 74.4222 36.47Z" fill="#E9E6E6"/>
<path d="M45.024 40.07C45.024 40.07 45.152 37.142 45.408 31.286C45.408 26.07 45.28 21.99 45.024 19.046C44.768 16.102 44.64 14.582 44.64 14.486C44.64 12.662 45.344 11.75 46.752 11.75C48.448 11.75 49.296 13.062 49.296 15.686C49.296 17.254 49.12 19.926 48.768 23.702C48.448 27.478 48.272 29.99 48.24 31.238C49.584 29.574 51.184 28.262 53.04 27.302C54.928 26.342 56.816 25.862 58.704 25.862C60.624 25.862 62.288 26.646 63.696 28.214C65.136 29.75 65.856 31.622 65.856 33.83C65.856 37.382 64.496 40.646 61.776 43.622C59.056 46.566 55.968 48.038 52.512 48.038C50.368 48.038 48.576 47.27 47.136 45.734C45.728 44.166 45.024 42.278 45.024 40.07ZM50.256 31.766C48.848 33.174 48.144 34.902 48.144 36.95C48.144 38.998 48.848 40.742 50.256 42.182C51.696 43.59 53.424 44.294 55.44 44.294C57.488 44.294 59.2 43.59 60.576 42.182C61.952 40.742 62.64 38.998 62.64 36.95C62.64 34.902 61.952 33.174 60.576 31.766C59.2 30.358 57.488 29.654 55.44 29.654C53.424 29.654 51.696 30.358 50.256 31.766Z" fill="#E9E6E6"/>
<path d="M109.61 20.21C109.743 19.69 109.87 18.9233 109.99 17.91C110.123 16.8967 110.19 15.7367 110.19 14.43C110.19 13.1233 110.13 11.33 110.01 9.05H109.39C108.87 9.05 108.61 8.82333 108.61 8.37C108.61 7.91667 108.87 7.69 109.39 7.69C109.657 7.69 109.857 7.69667 109.99 7.71C110.043 6.04333 110.67 4.63667 111.87 3.49C113.083 2.33 114.297 1.75 115.51 1.75C115.99 1.75 116.383 1.83667 116.69 2.01C117.01 2.18333 117.17 2.43667 117.17 2.77C117.17 3.09 117.077 3.34333 116.89 3.53C116.717 3.70333 116.543 3.79 116.37 3.79C116.197 3.79 115.897 3.71667 115.47 3.57C115.043 3.41 114.623 3.33 114.21 3.33C113.383 3.33 112.677 3.69667 112.09 4.43C111.503 5.15 111.21 6.01667 111.21 7.03V7.79H111.85L114.61 7.63C115.13 7.63 115.39 7.87667 115.39 8.37C115.39 8.86333 115.13 9.11 114.61 9.11L111.85 8.95C111.557 8.95 111.343 8.95667 111.21 8.97C111.237 10.4367 111.297 12.0833 111.39 13.91C111.497 15.7367 111.55 17.5367 111.55 19.31C111.55 21.47 111.13 22.55 110.29 22.55C109.703 22.55 109.41 22.17 109.41 21.41C109.41 21.1433 109.477 20.7433 109.61 20.21Z" fill="#FF1259"/>
<path d="M101.423 10.09C100.836 10.6767 100.543 11.3967 100.543 12.25C100.543 13.1033 100.836 13.83 101.423 14.43C102.023 15.0167 102.743 15.31 103.583 15.31C104.436 15.31 105.149 15.0167 105.723 14.43C106.296 13.83 106.583 13.1033 106.583 12.25C106.583 11.3967 106.296 10.6767 105.723 10.09C105.149 9.50334 104.436 9.21001 103.583 9.21001C102.743 9.21001 102.023 9.50334 101.423 10.09ZM102.223 16.87C101.369 16.87 100.656 16.5367 100.083 15.87C99.5093 15.2033 99.2227 14.37 99.2227 13.37C99.2227 12.3567 99.536 11.3833 100.163 10.45C100.789 9.50334 101.523 8.79667 102.363 8.33C103.203 7.86334 104.049 7.63 104.903 7.63C105.756 7.63 106.469 7.96334 107.043 8.63C107.616 9.29667 107.903 10.1367 107.903 11.15C107.903 12.15 107.589 13.1233 106.963 14.07C106.336 15.0033 105.603 15.7033 104.763 16.17C103.923 16.6367 103.076 16.87 102.223 16.87Z" fill="#FF1259"/>
<path d="M86.8914 16.87C86.3981 16.87 85.9981 16.77 85.6914 16.57C85.3847 16.37 85.2314 16.1233 85.2314 15.83C85.2314 15.5233 85.318 15.2833 85.4914 15.11C85.678 14.9233 85.8581 14.83 86.0314 14.83C86.2181 14.83 86.5181 14.91 86.9314 15.07C87.3447 15.23 87.7714 15.31 88.2114 15.31C88.6647 15.31 89.1181 15.1967 89.5714 14.97C90.0247 14.73 90.2514 14.4433 90.2514 14.11C90.2514 13.7633 90.0781 13.4967 89.7314 13.31C89.3981 13.1233 88.9914 12.9767 88.5114 12.87C88.0314 12.75 87.5514 12.6167 87.0714 12.47C86.5914 12.3233 86.178 12.1033 85.8314 11.81C85.498 11.5033 85.3314 11.13 85.3314 10.69C85.3314 9.97001 85.7914 9.28334 86.7114 8.63C87.6314 7.96334 88.6447 7.63 89.7514 7.63C90.2847 7.63 90.6914 7.73 90.9714 7.93001C91.2647 8.11667 91.4114 8.36334 91.4114 8.67001C91.4114 8.97667 91.318 9.22334 91.1314 9.41001C90.958 9.58334 90.7781 9.67001 90.5914 9.67001C90.4181 9.67001 90.1247 9.59001 89.7114 9.43001C89.2981 9.27001 88.8647 9.19001 88.4114 9.19001C87.9714 9.19001 87.5847 9.28334 87.2514 9.47001C86.9314 9.65667 86.7714 9.88334 86.7714 10.15C86.7714 10.4167 87.0247 10.65 87.5314 10.85C88.0514 11.05 88.6181 11.21 89.2314 11.33C89.8447 11.45 90.4047 11.69 90.9114 12.05C91.4314 12.3967 91.6914 12.85 91.6914 13.41C91.6914 14.2767 91.1847 15.07 90.1714 15.79C89.158 16.51 88.0647 16.87 86.8914 16.87Z" fill="#FF1259"/>
<path d="M80.8264 12.77L78.4464 12.57C78.2197 12.57 78.0397 12.59 77.9064 12.63C77.9864 13.39 78.3064 14.0233 78.8664 14.53C79.4397 15.0367 80.1131 15.29 80.8864 15.29C81.6331 15.29 82.3064 15.0167 82.9064 14.47C83.1197 14.2833 83.2797 14.19 83.3864 14.19C83.4931 14.19 83.5864 14.23 83.6664 14.31C83.7464 14.39 83.7864 14.4767 83.7864 14.57C83.7864 14.9567 83.4064 15.4367 82.6464 16.01C81.8997 16.5833 81.0464 16.87 80.0864 16.87C79.1397 16.87 78.3131 16.4833 77.6064 15.71C76.9131 14.9367 76.5664 13.9767 76.5664 12.83C76.5664 11.3633 77.1197 10.13 78.2264 9.13001C79.3331 8.13001 80.5531 7.63 81.8864 7.63C82.4464 7.63 82.8997 7.73 83.2464 7.93001C83.6064 8.11667 83.7864 8.36334 83.7864 8.67001C83.7864 8.96334 83.6931 9.20334 83.5064 9.39001C83.3331 9.57667 83.1597 9.67001 82.9864 9.67001C82.8131 9.67001 82.5131 9.59001 82.0864 9.43001C81.6731 9.27001 81.2731 9.19001 80.8864 9.19001C80.1664 9.19001 79.5397 9.41001 79.0064 9.85001C78.4864 10.2767 78.1397 10.81 77.9664 11.45L80.7264 11.29C81.3397 11.29 81.6464 11.53 81.6464 12.01C81.6464 12.5167 81.3731 12.77 80.8264 12.77Z" fill="#FF1259"/>
<path d="M73.0895 15.29C73.0895 10.1033 73.0562 7.00333 72.9895 5.99C72.8695 4.15 72.8095 3.07667 72.8095 2.77C72.8095 2.46333 72.8962 2.21667 73.0695 2.03C73.2562 1.84333 73.4762 1.75 73.7295 1.75C73.9828 1.75 74.1895 1.84333 74.3495 2.03C74.5095 2.21667 74.5895 2.45 74.5895 2.73C74.5895 3.57 74.5562 4.71 74.4895 6.15C74.3562 9.53667 74.2895 12.0567 74.2895 13.71C74.2895 14.11 74.4162 14.4967 74.6695 14.87C74.9362 15.23 75.0695 15.5567 75.0695 15.85C75.0695 16.1433 74.9695 16.39 74.7695 16.59C74.5695 16.7767 74.3428 16.87 74.0895 16.87C73.4228 16.87 73.0895 16.3433 73.0895 15.29Z" fill="#FF1259"/>
<path d="M70.2298 14.07C70.3232 14.31 70.5165 14.6367 70.8098 15.05C71.1165 15.45 71.2698 15.7767 71.2698 16.03C71.2698 16.2833 71.2032 16.49 71.0698 16.65C70.9365 16.7967 70.7565 16.87 70.5298 16.87C69.9832 16.87 69.4965 16.3033 69.0698 15.17L68.9098 14.73C68.2298 16.1567 67.2098 16.87 65.8498 16.87C65.1698 16.87 64.6032 16.6567 64.1498 16.23C63.7098 15.79 63.4898 15.2433 63.4898 14.59C63.4898 13.5767 63.8365 12.7033 64.5298 11.97C65.2232 11.2367 66.1298 10.8433 67.2498 10.79C66.9832 10.3233 66.6832 9.97667 66.3498 9.75001C66.0298 9.51001 65.7365 9.37001 65.4698 9.33001C65.2032 9.29001 64.9498 9.27001 64.7098 9.27001C64.4832 9.25667 64.3032 9.20334 64.1698 9.11001C64.0365 9.01667 63.9698 8.83667 63.9698 8.57001C63.9698 8.29001 64.0765 8.06334 64.2898 7.89001C64.5165 7.71667 64.7832 7.63 65.0898 7.63C65.9565 7.63 66.8098 8.06334 67.6498 8.93001C68.4898 9.79667 69.2232 11.1567 69.8498 13.01L70.2298 14.07ZM66.7498 11.85C66.2698 11.85 65.8365 12.01 65.4498 12.33C65.0765 12.65 64.8898 13.0633 64.8898 13.57C64.8898 14.0767 65.0565 14.5033 65.3898 14.85C65.7365 15.1833 66.1498 15.35 66.6298 15.35C67.1098 15.35 67.5232 15.1833 67.8698 14.85C68.2165 14.5033 68.3898 14.0967 68.3898 13.63C68.3898 13.2967 68.3298 12.99 68.2098 12.71C68.0898 12.4167 68.0165 12.2367 67.9898 12.17C67.6432 11.9567 67.2298 11.85 66.7498 11.85Z" fill="#FF1259"/>
<path d="M58.26 4.21002C58.26 4.21002 57.9067 4.20335 57.2 4.19002C55.3333 4.19002 54.4 4.73668 54.4 5.83002C54.4 6.57668 54.78 7.02335 55.54 7.17002C56.0467 7.26335 56.3 7.53002 56.3 7.97002C56.3 8.21002 56.2133 8.40335 56.04 8.55002C55.88 8.68335 55.66 8.75002 55.38 8.75002C54.7933 8.75002 54.3 8.50335 53.9 8.01002C53.5 7.50335 53.3 6.93002 53.3 6.29002C53.3 3.98335 55.2733 2.83002 59.22 2.83002H63.26C63.4733 2.83002 63.66 2.90335 63.82 3.05002C63.9933 3.18335 64.08 3.37002 64.08 3.61002C64.08 3.85002 63.9933 4.04335 63.82 4.19002C63.66 4.32335 63.4733 4.39002 63.26 4.39002L60.16 4.29002C60.0533 6.58335 60 8.41002 60 9.77002C60 11.1167 60.0267 12.4234 60.08 13.69C60.1467 14.9567 60.18 15.6967 60.18 15.91C60.18 16.1234 60.0867 16.3367 59.9 16.55C59.7267 16.7634 59.5 16.87 59.22 16.87C58.94 16.87 58.7067 16.7634 58.52 16.55C58.3467 16.3367 58.26 16.1234 58.26 15.91C58.26 15.6967 58.2867 14.9567 58.34 13.69C58.4067 12.4234 58.44 11.17 58.44 9.93002C58.44 8.69002 58.38 6.78335 58.26 4.21002Z" fill="#FF1259"/>
</svg>
